<svg width="124" height="118" viewBox="0 0 124 118" fill="none" xmlns="http://www.w3.org/2000/svg">
<line x1="0.5" y1="2.18557e-08" x2="0.499995" y2="118" stroke="black"/>
<line y1="117.5" x2="124" y2="117.5" stroke="black"/>
<rect x="88" y="78" width="26" height="87" transform="rotate(90 88 78)" fill="#B40C01"/>
<rect x="121" y="36" width="26" height="120" transform="rotate(90 121 36)" fill="#30B401"/>
<path d="M95.5824 51.5085V50.7841L98.7784 45.7273H99.304V46.8494H98.9489L96.5341 50.6705V50.7273H100.838V51.5085H95.5824ZM99.0057 53V51.2884V50.951V45.7273H99.8438V53H99.0057ZM104.442 53.0994C104.025 53.0994 103.65 53.0166 103.316 52.8509C102.982 52.6851 102.715 52.4579 102.513 52.169C102.312 51.8802 102.202 51.5511 102.183 51.1818H103.035C103.068 51.5109 103.218 51.7831 103.483 51.9986C103.75 52.2116 104.07 52.3182 104.442 52.3182C104.74 52.3182 105.005 52.2483 105.237 52.1087C105.471 51.969 105.655 51.7772 105.787 51.5334C105.922 51.2872 105.99 51.009 105.99 50.6989C105.99 50.3816 105.92 50.0987 105.78 49.8501C105.643 49.5992 105.454 49.4015 105.212 49.2571C104.971 49.1127 104.695 49.0393 104.385 49.0369C104.162 49.0346 103.934 49.0689 103.699 49.1399C103.465 49.2086 103.272 49.2973 103.121 49.4062L102.297 49.3068L102.737 45.7273H106.515V46.5085H103.476L103.22 48.6534H103.263C103.412 48.535 103.599 48.4368 103.824 48.3587C104.049 48.2805 104.283 48.2415 104.527 48.2415C104.972 48.2415 105.368 48.348 105.716 48.5611C106.067 48.7718 106.341 49.0606 106.54 49.4276C106.742 49.7945 106.842 50.2135 106.842 50.6847C106.842 51.1487 106.738 51.563 106.53 51.9276C106.324 52.2898 106.04 52.5762 105.677 52.7869C105.315 52.9953 104.903 53.0994 104.442 53.0994ZM110.625 53.0994C110.09 53.0994 109.634 52.9538 109.258 52.6626C108.881 52.3691 108.594 51.9441 108.395 51.3878C108.196 50.8291 108.097 50.1544 108.097 49.3636C108.097 48.5777 108.196 47.9065 108.395 47.3501C108.596 46.7914 108.885 46.3653 109.261 46.0717C109.64 45.7758 110.095 45.6278 110.625 45.6278C111.155 45.6278 111.609 45.7758 111.985 46.0717C112.364 46.3653 112.653 46.7914 112.852 47.3501C113.053 47.9065 113.153 48.5777 113.153 49.3636C113.153 50.1544 113.054 50.8291 112.855 51.3878C112.656 51.9441 112.369 52.3691 111.992 52.6626C111.616 52.9538 111.16 53.0994 110.625 53.0994ZM110.625 52.3182C111.155 52.3182 111.567 52.0625 111.861 51.5511C112.154 51.0398 112.301 50.3106 112.301 49.3636C112.301 48.7339 112.234 48.1977 112.099 47.755C111.966 47.3123 111.774 46.9749 111.523 46.7429C111.275 46.5109 110.975 46.3949 110.625 46.3949C110.099 46.3949 109.689 46.6541 109.393 47.1726C109.097 47.6887 108.949 48.419 108.949 49.3636C108.949 49.9934 109.015 50.5284 109.148 50.9688C109.28 51.4091 109.471 51.7441 109.719 51.9737C109.97 52.2034 110.272 52.3182 110.625 52.3182Z" fill="white"/>
<path d="M64.3097 87.7273V95H63.429V88.6506H63.3864L61.6108 89.8295V88.9347L63.429 87.7273H64.3097ZM68.674 95.0994C68.2573 95.0994 67.8821 95.0166 67.5483 94.8509C67.2145 94.6851 66.947 94.4579 66.7457 94.169C66.5445 93.8802 66.4344 93.5511 66.4155 93.1818H67.2678C67.3009 93.5109 67.45 93.7831 67.7152 93.9986C67.9827 94.2116 68.3023 94.3182 68.674 94.3182C68.9723 94.3182 69.2375 94.2483 69.4695 94.1087C69.7038 93.969 69.8873 93.7772 70.0199 93.5334C70.1548 93.2872 70.2223 93.009 70.2223 92.6989C70.2223 92.3816 70.1525 92.0987 70.0128 91.8501C69.8755 91.5992 69.6861 91.4015 69.4446 91.2571C69.2031 91.1127 68.9273 91.0393 68.6172 91.0369C68.3946 91.0346 68.1662 91.0689 67.9318 91.1399C67.6974 91.2086 67.5045 91.2973 67.353 91.4062L66.5291 91.3068L66.9695 87.7273H70.7479V88.5085H67.7081L67.4524 90.6534H67.495C67.6442 90.535 67.8312 90.4368 68.0561 90.3587C68.281 90.2805 68.5154 90.2415 68.7592 90.2415C69.2043 90.2415 69.6009 90.348 69.9489 90.5611C70.2992 90.7718 70.5739 91.0606 70.7727 91.4276C70.974 91.7945 71.0746 92.2135 71.0746 92.6847C71.0746 93.1487 70.9704 93.563 70.7621 93.9276C70.5561 94.2898 70.272 94.5762 69.9098 94.7869C69.5476 94.9953 69.1357 95.0994 68.674 95.0994ZM74.8574 95.0994C74.3224 95.0994 73.8667 94.9538 73.4902 94.6626C73.1138 94.3691 72.8262 93.9441 72.6273 93.3878C72.4284 92.8291 72.329 92.1544 72.329 91.3636C72.329 90.5777 72.4284 89.9065 72.6273 89.3501C72.8285 88.7914 73.1174 88.3653 73.4938 88.0717C73.8726 87.7758 74.3271 87.6278 74.8574 87.6278C75.3877 87.6278 75.8411 87.7758 76.2175 88.0717C76.5963 88.3653 76.8851 88.7914 77.084 89.3501C77.2852 89.9065 77.3858 90.5777 77.3858 91.3636C77.3858 92.1544 77.2864 92.8291 77.0875 93.3878C76.8887 93.9441 76.601 94.3691 76.2246 94.6626C75.8482 94.9538 75.3925 95.0994 74.8574 95.0994ZM74.8574 94.3182C75.3877 94.3182 75.7997 94.0625 76.0932 93.5511C76.3868 93.0398 76.5336 92.3106 76.5336 91.3636C76.5336 90.7339 76.4661 90.1977 76.3311 89.755C76.1986 89.3123 76.0068 88.9749 75.7559 88.7429C75.5073 88.5109 75.2078 88.3949 74.8574 88.3949C74.3319 88.3949 73.9211 88.6541 73.6252 89.1726C73.3292 89.6887 73.1813 90.419 73.1813 91.3636C73.1813 91.9934 73.2476 92.5284 73.3801 92.9688C73.5127 93.4091 73.7033 93.7441 73.9519 93.9737C74.2028 94.2034 74.5047 94.3182 74.8574 94.3182Z" fill="white"/>
</svg>
