<svg width="104" height="81" viewBox="0 0 104 81" fill="none" xmlns="http://www.w3.org/2000/svg">
<path d="M52 0L103.095 80.25H0.904503L52 0Z" fill="#B40C01"/>
<path d="M52.0001 0L88.7813 57.75H15.2559L52.0001 0Z" fill="#30B401"/>
<path d="M45.2102 40.0994C44.7415 40.0994 44.3236 40.0189 43.9567 39.858C43.5921 39.697 43.3021 39.4732 43.0866 39.1868C42.8736 38.898 42.7576 38.563 42.7386 38.1818H43.6335C43.6525 38.4162 43.733 38.6186 43.875 38.7891C44.017 38.9571 44.2029 39.0874 44.4325 39.1797C44.6622 39.272 44.9167 39.3182 45.196 39.3182C45.5085 39.3182 45.7855 39.2637 46.027 39.1548C46.2685 39.0459 46.4579 38.8944 46.5952 38.7003C46.7325 38.5062 46.8011 38.2812 46.8011 38.0256C46.8011 37.758 46.7348 37.5225 46.6023 37.3189C46.4697 37.1129 46.2756 36.9519 46.0199 36.8359C45.7642 36.7199 45.4517 36.6619 45.0824 36.6619H44.5V35.8807H45.0824C45.3712 35.8807 45.6245 35.8286 45.8423 35.7244C46.0625 35.6203 46.2341 35.4735 46.3572 35.2841C46.4827 35.0947 46.5455 34.8722 46.5455 34.6165C46.5455 34.3703 46.491 34.156 46.3821 33.9737C46.2732 33.7914 46.1193 33.6494 45.9205 33.5476C45.724 33.4458 45.492 33.3949 45.2244 33.3949C44.9735 33.3949 44.7367 33.4411 44.5142 33.5334C44.294 33.6233 44.1141 33.7547 43.9744 33.9276C43.8348 34.098 43.759 34.304 43.7472 34.5455H42.8949C42.9091 34.1643 43.0239 33.8305 43.2393 33.544C43.4548 33.2552 43.7365 33.0303 44.0845 32.8693C44.4349 32.7083 44.8196 32.6278 45.2386 32.6278C45.6884 32.6278 46.0743 32.719 46.3963 32.9013C46.7183 33.0812 46.9657 33.3191 47.1385 33.6151C47.3113 33.911 47.3977 34.2306 47.3977 34.5739C47.3977 34.9834 47.29 35.3326 47.0746 35.6214C46.8615 35.9103 46.5715 36.1103 46.2045 36.2216V36.2784C46.6638 36.3542 47.0225 36.5495 47.2805 36.8643C47.5386 37.1768 47.6676 37.5639 47.6676 38.0256C47.6676 38.4209 47.5599 38.776 47.3445 39.0909C47.1314 39.4034 46.8402 39.6496 46.4709 39.8295C46.1016 40.0095 45.6813 40.0994 45.2102 40.0994ZM51.3928 40.0994C50.9761 40.0994 50.6009 40.0166 50.267 39.8509C49.9332 39.6851 49.6657 39.4579 49.4645 39.169C49.2633 38.8802 49.1532 38.5511 49.1342 38.1818H49.9865C50.0196 38.5109 50.1688 38.7831 50.4339 38.9986C50.7015 39.2116 51.0211 39.3182 51.3928 39.3182C51.6911 39.3182 51.9562 39.2483 52.1882 39.1087C52.4226 38.969 52.6061 38.7772 52.7386 38.5334C52.8736 38.2872 52.9411 38.009 52.9411 37.6989C52.9411 37.3816 52.8712 37.0987 52.7315 36.8501C52.5942 36.5992 52.4048 36.4015 52.1634 36.2571C51.9219 36.1127 51.6461 36.0393 51.3359 36.0369C51.1134 36.0346 50.8849 36.0689 50.6506 36.1399C50.4162 36.2086 50.2232 36.2973 50.0717 36.4062L49.2479 36.3068L49.6882 32.7273H53.4666V33.5085H50.4268L50.1712 35.6534H50.2138C50.3629 35.535 50.55 35.4368 50.7749 35.3587C50.9998 35.2805 51.2341 35.2415 51.478 35.2415C51.9231 35.2415 52.3196 35.348 52.6676 35.5611C53.018 35.7718 53.2926 36.0606 53.4915 36.4276C53.6927 36.7945 53.7933 37.2135 53.7933 37.6847C53.7933 38.1487 53.6892 38.563 53.4808 38.9276C53.2749 39.2898 52.9908 39.5762 52.6286 39.7869C52.2663 39.9953 51.8544 40.0994 51.3928 40.0994ZM57.5762 40.0994C57.0411 40.0994 56.5854 39.9538 56.209 39.6626C55.8326 39.3691 55.5449 38.9441 55.3461 38.3878C55.1472 37.8291 55.0478 37.1544 55.0478 36.3636C55.0478 35.5777 55.1472 34.9065 55.3461 34.3501C55.5473 33.7914 55.8361 33.3653 56.2125 33.0717C56.5913 32.7758 57.0459 32.6278 57.5762 32.6278C58.1065 32.6278 58.5598 32.7758 58.9363 33.0717C59.315 33.3653 59.6039 33.7914 59.8027 34.3501C60.004 34.9065 60.1046 35.5777 60.1046 36.3636C60.1046 37.1544 60.0051 37.8291 59.8063 38.3878C59.6074 38.9441 59.3198 39.3691 58.9434 39.6626C58.5669 39.9538 58.1112 40.0994 57.5762 40.0994ZM57.5762 39.3182C58.1065 39.3182 58.5184 39.0625 58.812 38.5511C59.1055 38.0398 59.2523 37.3106 59.2523 36.3636C59.2523 35.7339 59.1848 35.1977 59.0499 34.755C58.9173 34.3123 58.7256 33.9749 58.4746 33.7429C58.226 33.5109 57.9266 33.3949 57.5762 33.3949C57.0506 33.3949 56.6399 33.6541 56.3439 34.1726C56.048 34.6887 55.9 35.419 55.9 36.3636C55.9 36.9934 55.9663 37.5284 56.0989 37.9688C56.2315 38.4091 56.4221 38.7441 56.6706 38.9737C56.9216 39.2034 57.2234 39.3182 57.5762 39.3182Z" fill="white"/>
<path d="M45.3097 63.7273V71H44.429V64.6506H44.3864L42.6108 65.8295V64.9347L44.429 63.7273H45.3097ZM49.674 71.0994C49.2573 71.0994 48.8821 71.0166 48.5483 70.8509C48.2145 70.6851 47.947 70.4579 47.7457 70.169C47.5445 69.8802 47.4344 69.5511 47.4155 69.1818H48.2678C48.3009 69.5109 48.45 69.7831 48.7152 69.9986C48.9827 70.2116 49.3023 70.3182 49.674 70.3182C49.9723 70.3182 50.2375 70.2483 50.4695 70.1087C50.7038 69.969 50.8873 69.7772 51.0199 69.5334C51.1548 69.2872 51.2223 69.009 51.2223 68.6989C51.2223 68.3816 51.1525 68.0987 51.0128 67.8501C50.8755 67.5992 50.6861 67.4015 50.4446 67.2571C50.2031 67.1127 49.9273 67.0393 49.6172 67.0369C49.3946 67.0346 49.1662 67.0689 48.9318 67.1399C48.6974 67.2086 48.5045 67.2973 48.353 67.4062L47.5291 67.3068L47.9695 63.7273H51.7479V64.5085H48.7081L48.4524 66.6534H48.495C48.6442 66.535 48.8312 66.4368 49.0561 66.3587C49.281 66.2805 49.5154 66.2415 49.7592 66.2415C50.2043 66.2415 50.6009 66.348 50.9489 66.5611C51.2992 66.7718 51.5739 67.0606 51.7727 67.4276C51.974 67.7945 52.0746 68.2135 52.0746 68.6847C52.0746 69.1487 51.9704 69.563 51.7621 69.9276C51.5561 70.2898 51.272 70.5762 50.9098 70.7869C50.5476 70.9953 50.1357 71.0994 49.674 71.0994ZM55.8574 71.0994C55.3224 71.0994 54.8667 70.9538 54.4902 70.6626C54.1138 70.3691 53.8262 69.9441 53.6273 69.3878C53.4284 68.8291 53.329 68.1544 53.329 67.3636C53.329 66.5777 53.4284 65.9065 53.6273 65.3501C53.8285 64.7914 54.1174 64.3653 54.4938 64.0717C54.8726 63.7758 55.3271 63.6278 55.8574 63.6278C56.3877 63.6278 56.8411 63.7758 57.2175 64.0717C57.5963 64.3653 57.8851 64.7914 58.084 65.3501C58.2852 65.9065 58.3858 66.5777 58.3858 67.3636C58.3858 68.1544 58.2864 68.8291 58.0875 69.3878C57.8887 69.9441 57.601 70.3691 57.2246 70.6626C56.8482 70.9538 56.3925 71.0994 55.8574 71.0994ZM55.8574 70.3182C56.3877 70.3182 56.7997 70.0625 57.0932 69.5511C57.3868 69.0398 57.5336 68.3106 57.5336 67.3636C57.5336 66.7339 57.4661 66.1977 57.3311 65.755C57.1986 65.3123 57.0068 64.9749 56.7559 64.7429C56.5073 64.5109 56.2078 64.3949 55.8574 64.3949C55.3319 64.3949 54.9211 64.6541 54.6252 65.1726C54.3292 65.6887 54.1813 66.419 54.1813 67.3636C54.1813 67.9934 54.2476 68.5284 54.3801 68.9688C54.5127 69.4091 54.7033 69.7441 54.9519 69.9737C55.2028 70.2034 55.5047 70.3182 55.8574 70.3182Z" fill="white"/>
</svg>
