<svg width="124" height="118" viewBox="0 0 124 118" fill="none" xmlns="http://www.w3.org/2000/svg">
<path d="M31.9801 21L35.233 14.5653V14.5085H31.483V13.7273H36.142V14.5511L32.9034 21H31.9801ZM39.6408 21.0994C39.2241 21.0994 38.8489 21.0166 38.5151 20.8509C38.1813 20.6851 37.9138 20.4579 37.7125 20.169C37.5113 19.8802 37.4012 19.5511 37.3823 19.1818H38.2346C38.2677 19.5109 38.4168 19.7831 38.682 19.9986C38.9495 20.2116 39.2691 20.3182 39.6408 20.3182C39.9391 20.3182 40.2042 20.2483 40.4363 20.1087C40.6706 19.969 40.8541 19.7772 40.9867 19.5334C41.1216 19.2872 41.1891 19.009 41.1891 18.6989C41.1891 18.3816 41.1193 18.0987 40.9796 17.8501C40.8423 17.5992 40.6529 17.4015 40.4114 17.2571C40.1699 17.1127 39.8941 17.0393 39.584 17.0369C39.3614 17.0346 39.133 17.0689 38.8986 17.1399C38.6642 17.2086 38.4713 17.2973 38.3198 17.4062L37.4959 17.3068L37.9363 13.7273H41.7147V14.5085H38.6749L38.4192 16.6534H38.4618C38.611 16.535 38.798 16.4368 39.0229 16.3587C39.2478 16.2805 39.4822 16.2415 39.726 16.2415C40.1711 16.2415 40.5676 16.348 40.9157 16.5611C41.266 16.7718 41.5407 17.0606 41.7395 17.4276C41.9408 17.7945 42.0414 18.2135 42.0414 18.6847C42.0414 19.1487 41.9372 19.563 41.7289 19.9276C41.5229 20.2898 41.2388 20.5762 40.8766 20.7869C40.5144 20.9953 40.1025 21.0994 39.6408 21.0994ZM45.8242 21.0994C45.2892 21.0994 44.8335 20.9538 44.457 20.6626C44.0806 20.3691 43.793 19.9441 43.5941 19.3878C43.3952 18.8291 43.2958 18.1544 43.2958 17.3636C43.2958 16.5777 43.3952 15.9065 43.5941 15.3501C43.7953 14.7914 44.0842 14.3653 44.4606 14.0717C44.8394 13.7758 45.2939 13.6278 45.8242 13.6278C46.3545 13.6278 46.8079 13.7758 47.1843 14.0717C47.5631 14.3653 47.8519 14.7914 48.0508 15.3501C48.252 15.9065 48.3526 16.5777 48.3526 17.3636C48.3526 18.1544 48.2532 18.8291 48.0543 19.3878C47.8555 19.9441 47.5678 20.3691 47.1914 20.6626C46.815 20.9538 46.3593 21.0994 45.8242 21.0994ZM45.8242 20.3182C46.3545 20.3182 46.7665 20.0625 47.06 19.5511C47.3536 19.0398 47.5004 18.3106 47.5004 17.3636C47.5004 16.7339 47.4329 16.1977 47.2979 15.755C47.1654 15.3123 46.9736 14.9749 46.7227 14.7429C46.4741 14.5109 46.1746 14.3949 45.8242 14.3949C45.2987 14.3949 44.8879 14.6541 44.592 15.1726C44.296 15.6887 44.1481 16.419 44.1481 17.3636C44.1481 17.9934 44.2144 18.5284 44.3469 18.9688C44.4795 19.4091 44.6701 19.7441 44.9187 19.9737C45.1696 20.2034 45.4715 20.3182 45.8242 20.3182Z" fill="#717070"/>
<line x1="0.5" y1="2.18557e-08" x2="0.499995" y2="118" stroke="black"/>
<line y1="117.5" x2="124" y2="117.5" stroke="black"/>
<rect x="27" y="31" width="26" height="86" fill="#0298EC"/>
</svg>
